<?xml version="1.0" encoding="utf-8"?>
<!DOCTYPE svg PUBLIC "-//W3C//DTD SVG 1.1//EN" "http://www.w3.org/Graphics/SVG/1.1/DTD/svg11.dtd">
<svg version="1.1" id="Icon" xmlns="http://www.w3.org/2000/svg" xmlns:xlink="http://www.w3.org/1999/xlink" x="0px" y="0px" viewBox="0 0 30 30" xml:space="preserve">
<path fill-rule="evenodd" clip-rule="evenodd" d="M1.828,8.179c0,0-3.344,3.499-2.763,9.192
	c0.581,5.694,4.186,10.392,16.208,10.392c12.021,0,15.045-6.275,15.116-11.436c0.071-5.159-2.253-7.46-3.344-8.243
	c0,0,0.007-3.704-0.343-5.661c0,0-1.85-0.219-5.845,2.07c0,0-5.454-0.533-12.722,0.065c0,0-3.053-2.04-6.129-2.574
	C2.006,1.984,1.496,5.196,1.828,8.179z"/>
<path fill-rule="evenodd" clip-rule="evenodd" fill="#E2B89F" d="M7.211,13.815h14.916c0,0,4.227-0.475,4.227,6.44
	c0.034,6.086-11.139,5.693-11.139,5.693s-12.236,0.486-12.243-6.269C2.956,13.579,7.211,13.815,7.211,13.815z"/>
<g>
	<g>
		<path fill-rule="evenodd" clip-rule="evenodd" fill="#9C584F" d="M20.767,16.591c0.959,0,1.737,1.25,1.737,2.787
			c0,1.54-0.778,2.788-1.737,2.788c-0.958,0-1.736-1.248-1.736-2.788C19.03,17.841,19.809,16.591,20.767,16.591z"/>
		<path fill="#FFFFFF" d="M20.767,22.666c-1.254,0-2.236-1.444-2.236-3.288c0-1.843,0.982-3.287,2.236-3.287
			c1.255,0,2.237,1.444,2.237,3.287C23.004,21.222,22.021,22.666,20.767,22.666z M20.767,17.091c-0.585,0-1.236,0.939-1.236,2.287
			c0,1.349,0.651,2.288,1.236,2.288s1.237-0.939,1.237-2.288C22.004,18.03,21.352,17.091,20.767,17.091z"/>
	</g>
</g>
<g>
	<g>
		<path fill-rule="evenodd" clip-rule="evenodd" fill="#9C584F" d="M8.767,16.591c0.959,0,1.737,1.25,1.737,2.787
			c0,1.54-0.778,2.788-1.737,2.788c-0.958,0-1.736-1.248-1.736-2.788C7.03,17.841,7.809,16.591,8.767,16.591z"/>
		<path fill="#FFFFFF" d="M8.767,22.666c-1.254,0-2.236-1.444-2.236-3.288c0-1.843,0.982-3.287,2.236-3.287
			c1.254,0,2.237,1.444,2.237,3.287C11.004,21.222,10.021,22.666,8.767,22.666z M8.767,17.091c-0.585,0-1.236,0.939-1.236,2.287
			c0,1.349,0.651,2.288,1.236,2.288c0.585,0,1.237-0.939,1.237-2.288C10.004,18.03,9.352,17.091,8.767,17.091z"/>
	</g>
</g>
<path fill-rule="evenodd" clip-rule="evenodd" fill="#9C584F" d="M14.076,22.705c0,0,0.499-1.418,1.109-0.089
	c0,0-0.457,0.297-0.285,0.996l1.428,0.546h-3.23l1.28-0.575C14.378,23.583,14.562,22.527,14.076,22.705z"/>
</svg>
